# xmcd generated by iCDc
#
# Track frame offsets:
#     150
#     16734
#     31171
#     44205
#     60274
#     73870
#     93583
#     110126
#     129770
#     143991
#     161537
#     175249
#     190942
#     207632
#     225010
#     243818
#     253837
#     270958
#     289678
#     307982
#
# Disc length: 4341 seconds
#
# Revision: 0
# Processed by: cddbd v1.4PL0 Copyright (c) Steve Scherf et al.
# Submitted via: iCDc 2.0 http://homepage.mac.com/andersw/icdc/
#
DISCID=1310f314
DTITLE=Kenny Rogers - Through The Years  (Disk 2 of 4)
DYEAR=1900
DGENRE=Country
TTITLE0=Lucille
TTITLE1=Daytime Friends
TTITLE2=Love Or Something Like It
TTITLE3=The Gambler
TTITLE4=Every Time Two Fools Collide
TTITLE5=She Believes In Me
TTITLE6=You Decorated My Life
TTITLE7=Coward Of The County
TTITLE8=All I Ever Need Is You
TTITLE9=Lady
TTITLE10=What Are We Doin' In Love
TTITLE11=I Don't Need You
TTITLE12=Love Will Turn You Around
TTITLE13=We've Got Tonight
TTITLE14=Islands In The Stream
TTITLE15=Crazy
TTITLE16=Real Love
TTITLE17=Morning Desire
TTITLE18=Tomb Of The Unknown Love
TTITLE19=Make No Mistake, She's Mine
EXTD=
EXTT0=
EXTT1=
EXTT2=
EXTT3=
EXTT4=
EXTT5=
EXTT6=
EXTT7=
EXTT8=
EXTT9=
EXTT10=
EXTT11=
EXTT12=
EXTT13=
EXTT14=
EXTT15=
EXTT16=
EXTT17=
EXTT18=
EXTT19=
PLAYORDER=
